<svg width="415" height="424" viewBox="0 0 415 424" fill="none" xmlns="http://www.w3.org/2000/svg">
<path d="M391.537 281.697C361.694 315.516 311.874 312.178 311.982 328.124C312.106 345.724 372.841 348.696 373.973 365.265C375.523 387.715 267.334 430.897 154.423 413.213C115.514 407.121 78.6763 401.24 46.9011 372.569C-40.1903 294 23.5927 127.684 33.9864 100.153C54.5104 45.7457 79.9523 28.2067 87.8199 22.7387C128.785 -5.71057 175.919 -1.03179 218 3.1363C249.868 6.29848 297.59 11.6737 341.159 47.5461C356.201 60.0449 369.216 74.7921 379.743 91.2646C415.63 147.296 431.49 236.431 391.537 281.697Z" fill="#E5F8C6"/>
<path d="M178.408 315.836C247.305 338.332 270.423 332.126 278.502 321.794C283.198 315.784 285.114 305.426 297.698 293.845C308.299 284.085 313.356 285.529 318.45 277.596C327.283 263.843 315.794 253.696 323.073 240.186C331.044 225.396 348.489 230.766 358.971 213.243C364.705 203.658 360.004 201.208 365.252 191.577C375.982 171.975 398.34 177.092 408.61 159.496C414.586 149.257 414.406 134.838 408.429 125.486C396.444 106.73 360.939 108.035 339.113 120.596C336.303 122.21 315.082 134.823 309.89 157.35C306.754 170.938 311.744 178.222 305.623 185.882C296.986 196.679 282.289 188.152 273.884 197.638C262.519 210.493 281.364 235.327 268.382 249.77C263.361 255.362 259.259 253.056 254.104 259.572C245.621 270.281 251.846 282.646 248.855 292.158C245.647 302.377 230.583 313.21 178.408 315.836Z" fill="#97C943"/>
<g style="mix-blend-mode:soft-light" opacity="0.28">
<path d="M335.905 153.342C323.621 173.125 336.602 188.678 323.414 203.772C312.695 216.029 299.351 211.242 293.736 223.297C288.353 234.847 299.145 242.384 293.922 255.724C289.624 266.711 280.77 265.468 269.772 278.88C258.701 292.38 260.99 301.789 255.09 310.162C248.757 319.148 233.507 326.215 195.993 321.247C190.482 319.662 184.628 317.858 178.429 315.836C230.604 313.21 245.668 302.377 248.876 292.169C251.867 282.656 245.642 270.291 254.124 259.582C259.29 253.072 263.381 255.378 268.403 249.781C281.384 235.337 262.514 210.504 273.904 197.649C282.309 188.162 297.006 196.689 305.643 185.893C311.765 178.232 306.775 170.933 309.91 157.361C315.076 134.834 336.323 122.221 339.134 120.606C360.959 108.045 396.475 106.74 408.449 125.497C408.511 125.59 408.563 125.682 408.62 125.775C396.868 124.424 384.964 125.51 373.652 128.963C363.465 132.1 345.694 137.573 335.905 153.342Z" fill="white"/>
</g>
<path d="M193.865 326.132C224.054 323.012 233.642 315.263 236.018 307.933C239.924 295.929 224.271 285.886 228.579 272.185C233.544 256.41 258.443 256.637 259.254 245.907C260.132 234.305 231.281 230.906 227.784 213.506C224.617 197.732 246.624 192.057 249.672 170.268C253.288 144.248 224.524 133.792 223.667 103.444C223.078 82.7221 235.915 67.0609 245.988 54.7732C268.656 27.1235 310.396 3.13639 352.276 12.334C357.99 13.5927 391.33 20.9178 396.775 41.8666C402.287 63.1094 377.434 91.8063 354.301 105.554C337.538 115.52 324.665 115.871 322.593 125.332C319.803 138.109 341.314 146.089 340.674 165.212C340.322 175.318 333.958 183.066 327.712 190.685C313.532 207.956 302.529 205.645 299.352 215.879C295.007 229.916 314.235 238.731 315.531 260.877C316.456 276.652 307.679 288.996 302.735 295.955C283.436 323.063 240.673 333.932 193.865 326.132Z" fill="url(#paint0_linear)"/>
<g style="mix-blend-mode:soft-light" opacity="0.7">
<path d="M408.971 33.4889C389.575 39.6792 370.155 45.7851 350.711 51.8069C345.855 53.3544 340.983 54.7988 336.143 56.3825L321.627 61.0871C316.792 62.6759 311.967 64.2853 307.163 65.9722C302.358 67.659 297.601 69.4078 292.946 71.4041C290.627 72.3997 288.333 73.4675 286.132 74.6695C285.022 75.2575 283.963 75.9178 282.924 76.5987C281.903 77.2923 280.929 78.0541 280.011 78.8788C278.209 80.5201 276.828 82.5685 275.981 84.8524C275.139 87.1466 274.743 89.5802 274.814 92.0227C274.929 94.4929 275.431 96.9297 276.302 99.2447C277.185 101.585 278.263 103.847 279.525 106.007C282.015 110.382 284.965 114.519 287.791 118.77C290.616 123.02 293.339 127.353 295.488 132.058C296.548 134.416 297.412 136.857 298.071 139.357C298.688 141.877 299.034 144.456 299.104 147.049C299.313 154.935 296.585 162.618 291.448 168.611C289.772 170.559 287.982 172.406 286.086 174.141C282.372 177.623 278.533 180.976 275.935 185.227C273.336 189.478 272.05 194.409 271.895 199.377C271.82 201.862 272.068 204.347 272.634 206.769C273.225 209.196 274.07 211.554 275.155 213.805C276.224 216.075 277.469 218.278 278.704 220.511C279.99 222.74 281.117 225.057 282.077 227.444C283.044 229.879 283.569 232.466 283.627 235.084C283.632 237.703 283.177 240.303 282.284 242.765C281.395 245.22 280.119 247.518 278.502 249.569C276.873 251.576 275.038 253.407 273.026 255.032C269.075 258.313 264.761 261.016 261.104 264.488C259.271 266.188 257.703 268.153 256.454 270.317C255.257 272.498 254.456 274.873 254.088 277.332C253.707 279.794 253.782 282.305 254.311 284.74C254.936 287.172 255.81 289.533 256.919 291.787C257.465 292.963 257.946 294.169 258.361 295.398C258.789 296.641 259.02 297.942 259.048 299.256C259.081 300.58 258.871 301.898 258.428 303.146C257.985 304.383 257.368 305.55 256.594 306.612C255.015 308.671 253.093 310.442 250.911 311.848C248.77 313.262 246.515 314.498 244.17 315.542C239.486 317.59 234.65 319.272 229.706 320.571C224.788 321.918 219.808 323.016 214.802 323.976C209.796 324.935 204.775 325.761 199.728 326.467C189.644 327.902 179.514 328.949 169.368 329.815V329.748C179.504 328.794 189.624 327.685 199.687 326.137C204.718 325.388 209.729 324.516 214.719 323.522C219.71 322.521 224.664 321.381 229.556 320.004C234.453 318.67 239.238 316.959 243.87 314.887C246.168 313.839 248.376 312.605 250.472 311.198C252.565 309.826 254.408 308.107 255.922 306.117C257.417 304.147 258.213 301.738 258.185 299.267C258.185 296.806 257.152 294.469 256.119 292.174C254.971 289.865 254.063 287.445 253.412 284.952C252.85 282.41 252.759 279.788 253.143 277.214C253.518 274.633 254.347 272.14 255.592 269.847C256.876 267.589 258.492 265.536 260.386 263.755C264.11 260.17 268.46 257.436 272.319 254.197C274.262 252.615 276.032 250.832 277.598 248.878C279.128 246.921 280.335 244.732 281.173 242.394C282.003 240.061 282.421 237.601 282.408 235.125C282.34 232.648 281.831 230.203 280.904 227.903C279.091 223.261 276.142 219.051 273.956 214.383C272.831 212.049 271.952 209.604 271.332 207.089C270.74 204.554 270.477 201.953 270.552 199.351C270.617 196.754 270.989 194.174 271.663 191.665C272.006 190.407 272.436 189.175 272.949 187.976C273.474 186.783 274.081 185.629 274.767 184.52C275.453 183.415 276.205 182.352 277.02 181.337C277.846 180.342 278.699 179.362 279.603 178.444C281.39 176.586 283.291 174.879 285.135 173.141C286.988 171.439 288.737 169.629 290.373 167.719C295.282 161.982 297.882 154.628 297.668 147.085C297.587 144.598 297.24 142.127 296.634 139.713C295.993 137.298 295.153 134.939 294.124 132.662C292.058 128.086 289.356 123.794 286.546 119.58C283.735 115.365 280.77 111.202 278.223 106.735C276.913 104.505 275.795 102.169 274.881 99.7502C273.947 97.293 273.405 94.7046 273.274 92.0795C273.185 89.4315 273.612 86.7914 274.53 84.3056C274.996 83.0566 275.612 81.8685 276.364 80.7668C277.118 79.67 277.995 78.6627 278.978 77.7646C279.953 76.8906 280.989 76.0856 282.077 75.3555C283.167 74.6437 284.273 73.9627 285.409 73.3592C287.677 72.1315 290.012 71.0636 292.368 70.0577C297.079 68.0614 301.878 66.323 306.692 64.6464C311.507 62.9699 316.347 61.3759 321.193 59.8077C330.874 56.6559 340.612 53.6743 350.375 50.7803C369.878 44.934 389.4 39.1478 408.94 33.4219L408.971 33.4889Z" fill="white"/>
</g>
<path d="M204.863 301.14C211.376 308.644 218.631 315.472 226.518 321.521C247.409 337.548 286.081 358.239 307.209 345.565C309.792 344.017 316.668 339.89 318.956 332.359C321.338 324.528 316.657 319.978 319.369 315.563C323.079 309.532 334.051 314.433 348.097 311.379C360.03 308.8 376.664 299.912 381.794 283.766C387.414 266.067 375.853 250.173 374.562 248.481C365.919 236.978 349.331 227.502 334.836 231.974C322.009 235.941 315.645 249.353 311.445 258.2C301.935 278.225 306.884 290.874 297.828 295.625C289.562 299.948 281.917 291.323 271.585 297.358C267.168 299.938 267.199 302.316 259.704 307.82C255.641 310.841 251.237 313.374 246.582 315.367C230.289 321.768 206.924 302.842 204.863 301.14Z" fill="url(#paint1_linear)"/>
<g style="mix-blend-mode:soft-light" opacity="0.5">
<path d="M280.626 329.335C274.204 329.335 264.834 328.206 251.03 324.775C233.688 320.446 216.815 314.424 200.653 306.798L200.87 306.334C217.003 313.942 233.846 319.951 251.154 324.275C285.657 332.843 292.166 327.061 294.305 325.162C297.601 322.242 298.489 319.003 299.435 315.572C300.468 311.76 301.671 307.443 306.388 302.913C310.691 298.787 314.602 297.636 318.383 296.532C322.164 295.428 325.656 294.397 329.531 290.657C334.526 285.834 335.616 280.706 336.763 275.279C337.353 272.046 338.251 268.876 339.444 265.813C344.832 252.819 359.116 243.013 381.902 236.662L382.042 237.178C359.415 243.482 345.245 253.17 339.919 266.03C338.741 269.065 337.854 272.205 337.269 275.408C336.097 280.912 334.991 286.112 329.887 291.049C325.92 294.876 322.139 295.98 318.522 297.043C314.798 298.137 310.949 299.266 306.739 303.305C302.126 307.737 301.01 311.796 299.925 315.727C298.964 319.235 298.05 322.547 294.646 325.57C293.328 326.72 290.379 329.335 280.626 329.335Z" fill="white"/>
</g>
<path d="M410.728 362.721L4.06543 359.26V369.5C4.06543 372.28 5.83732 374.658 8.23945 375.066L123.232 395.235C124.596 395.473 125.985 395.535 127.364 395.421L406.321 372.43C408.816 372.223 410.743 369.85 410.743 366.998L410.728 362.721Z" fill="url(#paint2_linear)"/>
<path d="M263.149 346.307L8.26539 365.043C3.70393 365.378 0 361.819 0 357.088V167.554C0 162.823 3.70909 158.985 8.26539 158.985H263.149C266.91 158.985 269.948 162.452 269.948 166.723V338.064C269.948 342.34 266.91 346.034 263.149 346.307Z" fill="url(#paint3_linear)"/>
<path d="M267.215 346.307L12.3308 365.043C7.77452 365.378 4.06543 361.819 4.06543 357.088V167.554C4.06543 162.823 7.77452 158.985 12.3308 158.985H267.215C270.97 158.985 274.013 162.452 274.013 166.723V338.064C274.013 342.34 270.97 346.034 267.215 346.307Z" fill="url(#paint4_linear)"/>
<path d="M259.275 334.231L21.8774 350.506C18.1683 350.759 15.1618 347.834 15.1618 343.97V178.036C15.1284 176.218 15.8153 174.46 17.0729 173.146C18.3306 171.831 20.0573 171.065 21.8774 171.015L259.275 169.983C262.374 169.983 264.88 172.81 264.88 176.328V327.473C264.88 330.991 262.374 334.014 259.275 334.231Z" fill="#E0E0E0"/>
<path d="M148.777 164.17C148.731 164.741 148.519 165.286 148.167 165.738C147.816 166.191 147.34 166.531 146.798 166.718C146.255 166.904 145.67 166.929 145.114 166.789C144.558 166.648 144.055 166.349 143.667 165.928C143.278 165.506 143.021 164.981 142.927 164.416C142.833 163.851 142.906 163.271 143.137 162.747C143.368 162.223 143.747 161.777 144.227 161.465C144.708 161.152 145.269 160.986 145.843 160.987C146.651 161.03 147.411 161.387 147.959 161.982C148.508 162.577 148.801 163.362 148.777 164.17Z" fill="white"/>
<g style="mix-blend-mode:soft-light" opacity="0.48">
<path d="M12.3308 365.043L265.923 346.405L267.215 346.307C268.946 346.15 270.552 345.338 271.704 344.037C253.453 343.041 242.119 336.578 234.809 329.892C220.128 316.48 222.675 303.243 206.836 294.417C187.087 283.414 171.558 297.358 156.572 283.584C147.485 275.243 151.949 269.022 140.77 256.559C128.372 242.755 120.323 247.392 107.879 234.97C92.1435 219.257 100.011 207.037 86.461 195.766C70.0181 182.08 52.2836 194.734 36.6311 181.621C29.8793 175.946 26.1753 167.734 24.233 158.98H12.3308C7.77452 158.98 4.06543 162.818 4.06543 167.548V357.088C4.06543 361.818 7.74869 365.378 12.3308 365.043Z" fill="url(#paint5_linear)"/>
</g>
<path d="M277.376 345.271L4.06543 364.992L123.232 385.894C124.596 386.132 125.985 386.194 127.364 386.08L410.733 362.722L281.721 345.405C280.281 345.211 278.825 345.166 277.376 345.271Z" fill="#828282"/>
<path d="M43.9458 365.162L271.482 348.5L341.903 357.873L116.325 375.685L43.9458 365.162Z" fill="#4F4F4F"/>
<path d="M298.861 295.372C298.861 316.341 281.731 334.427 260.303 335.784L21.6401 350.919C46.8754 349.315 67.0326 329.604 67.0326 306.87V45.297L298.861 54.1645V295.372Z" fill="url(#paint6_linear)"/>
<path d="M143.518 159.12C115.958 159.12 93.146 137.763 93.146 111.506C93.146 85.2495 115.958 64.6308 143.518 65.5233C170.567 66.3951 192.202 87.7307 192.202 113.106C192.202 138.48 170.567 159.12 143.518 159.12Z" fill="#D8DEE8"/>
<path d="M188.901 113.054C188.901 136.742 168.754 155.922 143.518 155.87C117.834 155.844 96.6743 135.999 96.6743 111.543C96.6743 87.0862 117.854 67.9275 143.518 68.727C168.759 69.5369 188.901 89.3663 188.901 113.054Z" fill="white"/>
<path d="M143.989 127.838C135.759 128.55 133.14 131.289 129.87 129.319C126.884 127.523 128.109 124.676 124.916 122.613C120.437 119.719 115.008 123.335 112.885 120.895C111.222 118.986 114.435 116.66 113.877 111.682C113.205 105.76 108.117 104.398 108.85 99.6777C109.367 96.3505 112.353 94.1736 112.565 94.0034C114.869 92.3733 115.995 93.2863 118.118 91.7955C121.192 89.6444 119.88 86.9826 123.02 84.4807C123.263 84.2847 126.368 81.8757 129.633 82.6288C132.159 83.2117 132.118 85.074 134.236 85.6259C138.027 86.6112 140.15 81.1741 144.862 81.3495C148.576 81.4836 148.726 84.9244 153.236 85.8735C158.773 87.0394 162.818 82.7423 164.972 84.5581C166.352 85.7239 164.797 87.5758 166.383 89.7682C168.118 92.1618 170.753 91.0063 173.615 93.5443C175.299 95.0299 176.807 97.5627 176.714 100.121C176.621 102.68 174.989 103.253 175.345 105.517C175.702 107.782 177.345 107.844 177.758 109.959C178.223 112.337 176.725 115.117 174.658 116.577C171.874 118.604 169.363 117.32 167.803 119.373C166.641 120.921 167.669 122.122 166.682 123.943C165.696 125.764 163.609 126.703 159.548 127.462C152.461 128.808 150.766 127.25 143.989 127.838Z" fill="url(#paint7_linear)"/>
<g style="mix-blend-mode:multiply" opacity="0.3">
<path style="mix-blend-mode:multiply" opacity="0.3" d="M170.371 115.365C165.721 114.411 165.272 110.273 160.338 108.886C151.83 106.487 144.676 116.371 140.383 113.823C136.276 111.383 141.891 101.783 136.25 95.8554C132.117 91.4706 125.717 93.1936 124.312 89.9643C123.681 88.5045 124.162 86.2347 127.664 82.5464C125.969 82.7855 124.367 83.463 123.015 84.5118C119.874 87.0137 121.186 89.6703 118.113 91.8266C115.989 93.3174 114.863 92.4043 112.559 94.0344C112.348 94.1892 109.367 96.3661 108.845 99.7088C108.112 104.429 113.2 105.791 113.871 111.713C114.44 116.691 111.216 119.017 112.88 120.926C115.003 123.366 120.432 119.75 124.911 122.644C128.103 124.707 126.879 127.539 129.865 129.35C133.145 131.32 135.754 128.581 143.983 127.869C150.761 127.281 152.455 128.839 159.558 127.524C163.619 126.765 165.757 125.759 166.692 124.005C167.627 122.252 166.651 120.972 167.813 119.435C169.363 117.372 171.884 118.666 174.669 116.639C175.441 116.074 176.106 115.375 176.632 114.576C174.677 115.479 172.489 115.755 170.371 115.365Z" fill="url(#paint8_linear)"/>
</g>
<path d="M113.045 156.514C115.891 160.682 126.042 158.65 145.022 158.449C163.892 158.248 172.209 160.074 175.108 156.081C176.451 154.234 175.939 152.083 174.978 147.998C174.317 145.202 173.031 139.744 168.263 135.952C162.384 131.31 154.129 131.47 145.776 131.65C136.994 131.836 124.766 132.104 117.932 139.275C113.127 144.314 112.637 151.021 112.58 152.011C112.435 154.348 112.368 155.519 113.045 156.514Z" fill="url(#paint9_linear)"/>
<path d="M141.369 118.465C141.369 118.465 142.49 130.757 133.352 133.13C133.127 133.179 132.921 133.292 132.759 133.455C132.597 133.618 132.486 133.825 132.44 134.05C132.393 134.275 132.413 134.509 132.497 134.723C132.581 134.937 132.726 135.122 132.913 135.256C135.811 137.417 141.028 140.868 145.368 141.343C149.872 141.828 155.209 137.469 157.931 134.895C158.096 134.737 158.213 134.536 158.269 134.315C158.324 134.094 158.315 133.862 158.243 133.645C158.171 133.429 158.039 133.238 157.862 133.093C157.685 132.949 157.471 132.858 157.244 132.831C153.38 132.145 146.432 129.452 147.15 119.011L141.369 118.465Z" fill="url(#paint10_linear)"/>
<path d="M135.258 109.525C135.258 109.525 134.607 121.792 143.968 121.771C153.328 121.751 152.61 111.33 152.099 108.627C152.099 108.627 152.161 101.545 145.972 102.03C139.784 102.514 135.542 104.289 135.258 109.525Z" fill="url(#paint11_linear)"/>
<path d="M151.36 112.971C151.36 112.971 152.249 109.794 154.083 111.424C156.743 113.761 151.066 116.278 151.066 116.278L151.36 112.971Z" fill="url(#paint12_linear)"/>
<path d="M136.152 112.713C136.152 112.713 135.253 109.489 133.394 111.047C130.692 113.317 136.447 116.025 136.447 116.025L136.152 112.713Z" fill="url(#paint13_linear)"/>
<path d="M134.974 109.36C134.996 109.409 135.031 109.451 135.075 109.482C135.119 109.512 135.171 109.53 135.225 109.532C135.278 109.535 135.332 109.523 135.379 109.497C135.426 109.471 135.465 109.433 135.491 109.386C136.126 107.838 138.131 104.3 143.374 103.882C148.049 103.51 150.529 106.802 151.609 108.849C151.653 108.956 151.732 109.045 151.833 109.102C151.934 109.158 152.051 109.179 152.165 109.161C152.28 109.143 152.385 109.088 152.464 109.003C152.543 108.918 152.591 108.81 152.6 108.695C152.915 105.765 152.487 100.09 144.536 99.9252C134.468 99.7137 134.184 106.946 134.974 109.36Z" fill="url(#paint14_linear)"/>
<path d="M283.859 111.981L200.487 110.558V96.0828L283.859 97.9295V111.981Z" fill="#D8DEE8"/>
<path d="M283.859 123.577L200.487 122.51V115.272L283.859 116.557V123.577Z" fill="#D8DEE8"/>
<path d="M283.859 135.179L200.487 134.457V127.219L283.859 128.153V135.179Z" fill="#D8DEE8"/>
<path d="M283.859 197.366L104.495 199.847V192.661L283.859 190.613V197.366Z" fill="#D8DEE8"/>
<path d="M89.8657 200.047L97.9865 199.934V192.733L89.8657 192.826V200.047Z" fill="#97C943"/>
<path d="M283.859 208.507L104.495 211.716V204.525L283.859 201.76V208.507Z" fill="#D8DEE8"/>
<path d="M89.8657 211.974L97.9865 211.83V204.629L89.8657 204.752V211.974Z" fill="#97C943"/>
<path d="M283.859 219.65L104.495 223.581V216.395L283.859 212.903V219.65Z" fill="#D8DEE8"/>
<path d="M89.8657 223.901L97.9865 223.725V216.519L89.8657 216.679V223.901Z" fill="#97C943"/>
<path d="M283.859 230.798L104.495 235.451V228.26L283.859 224.045V230.798Z" fill="#D8DEE8"/>
<path d="M89.8657 235.827L97.9865 235.616V228.414L89.8657 228.605V235.827Z" fill="#97C943"/>
<path d="M283.859 253.082L89.8657 259.68V252.458L283.859 246.335V253.082Z" fill="#D8DEE8"/>
<path d="M283.859 264.23L89.8657 271.607V264.385L283.859 257.478V264.23Z" fill="#D8DEE8"/>
<path d="M283.859 275.372L89.8657 283.533V276.311L283.859 268.62V275.372Z" fill="#D8DEE8"/>
<path d="M283.859 286.515L89.8657 295.46V288.238L283.859 279.768V286.515Z" fill="#D8DEE8"/>
<path d="M275.428 408.086C275.428 408.086 276.203 412.801 276.105 414.477C276.007 416.154 257.358 417.015 257.172 415.757C256.986 414.498 260.272 412.502 262.555 411.795C264.838 411.088 271.595 409.216 271.595 409.216L275.428 408.086Z" fill="url(#paint15_linear)"/>
<path d="M270.903 403.397L271.497 409.257C271.497 409.257 273.667 410.686 275.573 409.582L276.529 403.206L270.903 403.397Z" fill="url(#paint16_linear)"/>
<path d="M308.697 415.726C308.697 415.726 309.467 420.441 309.369 422.122C309.27 423.804 290.627 424.655 290.436 423.396C290.245 422.138 293.535 420.141 295.824 419.44C298.112 418.738 304.859 416.861 304.859 416.861L308.697 415.726Z" fill="url(#paint17_linear)"/>
<path d="M304.172 411.026L304.787 416.892C304.787 416.892 306.951 418.32 308.857 417.217L309.813 410.835L304.172 411.026Z" fill="url(#paint18_linear)"/>
<path d="M274.308 250.359L267.824 263.446C266.089 288.346 265.241 315.418 265.758 344.373C266.171 365.915 267.308 386.322 268.982 405.481C271.905 405.347 274.824 405.207 277.764 405.078C281.989 396.701 286.974 384.016 287.434 368.355C287.914 352.018 282.955 349.851 283.27 334.211C283.678 313.938 292.192 308.531 296.702 284.173C298.897 272.207 299.408 259.994 298.22 247.888L274.308 250.359Z" fill="#253A47"/>
<path style="mix-blend-mode:multiply" opacity="0.3" d="M298.246 247.862L285.305 249.208C277.557 262.698 275.377 276.74 276.74 282.95C278.667 291.72 283.761 294.552 283.456 303.378C283.182 312.106 278.032 314.371 274.762 324.657C272.499 331.781 273.098 338.332 274.385 351.141C276.968 376.934 283.213 384.831 278.001 393.291C276.513 395.695 273.837 398.558 268.594 400.745C268.723 402.324 268.852 403.913 268.986 405.481C271.91 405.347 274.829 405.207 277.768 405.078C281.994 396.701 286.979 384.016 287.439 368.355C287.919 352.018 282.96 349.851 283.275 334.211C283.683 313.938 292.197 308.532 296.706 284.173C298.911 272.2 299.429 259.978 298.246 247.862Z" fill="url(#paint19_linear)"/>
<path d="M285.884 258.21C289.929 280.242 293.499 303.817 296.288 328.82C299.657 359.008 301.454 387.473 302.157 413.894L311.781 414.168C324.417 389.201 325.212 372.276 323.368 361.257C322.665 357.011 320.759 348.68 320.325 336.238C320.02 327.561 320.573 320.964 321.265 313.025C322.784 295.625 324.628 291.828 324.882 278.519C325.129 266.025 325.181 259.706 321.611 256.018C312.215 246.299 287.739 257.354 285.884 258.21Z" fill="#253A47"/>
<path d="M214.011 163.593C213.087 162.375 211.692 160.43 211.625 159.378C211.557 158.326 210.075 159.77 211.108 162.128C211.423 162.834 211.366 163.108 211.196 163.324C210.721 163.933 209.083 162.638 207.952 163.247C206.82 163.856 206.402 166.275 207.409 167.461C208.148 168.333 209.29 167.694 210.597 168.318C211.63 168.834 211.382 170.082 211.888 173.296C212.921 173.249 215.256 175.008 215.644 174.039C217.147 170.324 214.936 164.81 214.011 163.593Z" fill="#FFCBAD"/>
<path d="M216.517 171.965L210.122 171.516C205.085 191.82 208.701 211.5 220.066 218.763C237.805 230.081 270.779 208.755 277.924 185.542C281.059 175.349 280.346 160.647 274.075 157.789C272.334 156.995 269.637 156.871 263.785 160.152C246.314 169.953 245.859 188.456 236.974 190.025C233.022 190.721 226.647 188.209 216.517 171.965Z" fill="url(#paint20_linear)"/>
<path d="M265.365 267.913C262.297 262.822 266.156 257.911 267.034 248.265C268.031 237.334 263.81 235.513 259.642 217.396C256.868 205.346 254.202 193.775 257.384 180.255C258.903 173.765 261.486 162.757 270.609 157.444C275.32 154.699 281.746 154.973 294.408 155.633C310.071 156.453 317.897 156.861 323.74 159.93C324.592 160.379 342.337 170.03 343.582 185.759C344.827 201.75 327.366 203.917 325.036 225.263C324.003 234.847 325.858 249.585 327.067 259.144C328.224 268.326 329.024 270.673 327.211 273.454C322.836 280.16 309.451 278.241 282.681 274.424C272.179 272.886 267.659 271.715 265.365 267.913Z" fill="url(#paint21_linear)"/>
<path style="mix-blend-mode:multiply" opacity="0.3" d="M306.099 221.817C307.23 225.974 311.301 229.08 314.137 239.201C314.746 241.388 319.106 256.946 313.455 260.779C310.19 262.987 307.256 258.798 299.331 258.251C285.6 257.302 279.06 268.826 270.087 265.68C268.538 265.133 266.471 263.967 264.405 261.295C263.997 263.704 264.069 265.798 265.345 267.918C267.639 271.72 272.159 272.912 282.661 274.408C309.431 278.225 322.815 280.134 327.191 273.438C329.004 270.658 328.224 268.31 327.046 259.128C325.837 249.57 323.947 234.832 325.016 225.247C327.346 203.901 344.806 201.75 343.562 185.743C343.185 181.678 341.812 177.768 339.563 174.358C317.417 183.277 302.539 208.735 306.099 221.817Z" fill="url(#paint22_linear)"/>
<path d="M334.072 253.283L329.639 256.105C328.213 254.413 326.281 253.222 324.127 252.706C320.888 251.994 317.169 253.015 317.081 254.047C317.014 254.877 319.277 255.708 319.628 255.837C322.454 256.869 324.551 256.017 325.693 257.152C326.281 257.869 326.978 258.489 327.759 258.989C328.013 259.141 328.277 259.277 328.549 259.396C330.44 260.129 333.674 256.848 333.953 256.564L334.072 253.283Z" fill="#FFCBAD"/>
<path d="M320.981 195.266C317.773 187.6 315.557 175.864 320.62 158.434C353.976 171.557 370.987 202.673 364.349 227.341C358.868 247.676 338.948 257.581 334.506 259.665C333.472 257.312 332.439 254.962 331.406 252.613C336.572 246.887 342.358 238.417 341.542 228.755C340.395 215.358 327.47 210.788 320.981 195.266Z" fill="url(#paint23_linear)"/>
<path d="M295.229 139.843C295.229 139.843 295.493 145.672 297.295 150.036C298.933 153.977 307.539 156.458 309.285 157.341C311.031 158.223 306.015 160.792 300.979 161.297C295.942 161.803 281.56 160.663 278.967 158.754C276.374 156.845 281.033 156.99 284.649 155.659C288.265 154.328 290.332 147.317 289.691 144.135C289.051 140.952 295.229 139.843 295.229 139.843Z" fill="#FFCBAD"/>
<path d="M287.264 137.733C284.65 135.154 284.288 134.865 283.999 133.983C282.857 130.423 285.621 125.554 289.248 124.352C289.433 124.29 291.867 123.516 292.791 124.568C293.582 125.461 292.419 126.699 292.972 128.422C293.489 130.031 294.889 130.155 297.482 132.27C299.621 134.014 300.953 135.092 301.258 136.619C301.888 139.76 298.081 144.31 294.713 144.186C293.499 144.145 293.168 143.526 287.264 137.733Z" fill="url(#paint24_linear)"/>
<path d="M294.382 144.671C294.382 144.671 291.603 147.812 287.372 146.776C283.58 145.847 284.551 137.16 287.32 135.772C288.245 135.313 289.903 135.349 291.19 135.958C291.939 136.319 292.145 136.691 293.375 137.253C294.511 137.769 294.873 137.702 295.178 138.068C295.56 138.527 295.725 139.512 294.527 141.885C295.39 141.277 296.319 141.148 296.888 141.55C297.08 141.703 297.227 141.907 297.311 142.138C297.673 143.216 296.552 144.31 294.382 144.671Z" fill="#FFCBAD"/>
<defs>
<linearGradient id="paint0_linear" x1="605845" y1="117256" x2="546284" y2="178638" gradientUnits="userSpaceOnUse">
<stop stop-color="#40A9C8"/>
<stop offset="1" stop-color="#59C4E3"/>
</linearGradient>
<linearGradient id="paint1_linear" x1="530854" y1="43939.4" x2="515183" y2="81897.6" gradientUnits="userSpaceOnUse">
<stop stop-color="#40A9C8"/>
<stop offset="1" stop-color="#59C4E3"/>
</linearGradient>
<linearGradient id="paint2_linear" x1="1.26722e+06" y1="12576.6" x2="1.2626e+06" y2="54404.8" gradientUnits="userSpaceOnUse">
<stop stop-color="#67697C"/>
<stop offset="1" stop-color="#3E3E3F"/>
</linearGradient>
<linearGradient id="paint3_linear" x1="841165" y1="69677.7" x2="720883" y2="196642" gradientUnits="userSpaceOnUse">
<stop stop-color="#67697C"/>
<stop offset="1" stop-color="#3E3E3F"/>
</linearGradient>
<linearGradient id="paint4_linear" x1="841169" y1="69677.7" x2="720887" y2="196642" gradientUnits="userSpaceOnUse">
<stop stop-color="#67697C"/>
<stop offset="1" stop-color="#3E3E3F"/>
</linearGradient>
<linearGradient id="paint5_linear" x1="833974" y1="69679.5" x2="713637" y2="195612" gradientUnits="userSpaceOnUse">
<stop stop-color="#67697C"/>
<stop offset="1" stop-color="#3E3E3F"/>
</linearGradient>
<linearGradient id="paint6_linear" x1="222.964" y1="92.1313" x2="71.4376" y2="405.939" gradientUnits="userSpaceOnUse">
<stop stop-color="white"/>
<stop offset="1" stop-color="#EBEFF2"/>
</linearGradient>
<linearGradient id="paint7_linear" x1="51970.9" y1="26446" x2="50549.5" y2="23588.6" gradientUnits="userSpaceOnUse">
<stop stop-color="#444B8C"/>
<stop offset="1" stop-color="#26264F"/>
</linearGradient>
<linearGradient id="paint8_linear" x1="19172.3" y1="11768.5" x2="18803.2" y2="7580.01" gradientUnits="userSpaceOnUse">
<stop stop-color="#311944"/>
<stop offset="1" stop-color="#6B3976"/>
</linearGradient>
<linearGradient id="paint9_linear" x1="144.204" y1="88.3371" x2="144.204" y2="149.974" gradientUnits="userSpaceOnUse">
<stop stop-color="#1F2B4E"/>
<stop offset="1" stop-color="#40A9C8"/>
</linearGradient>
<linearGradient id="paint10_linear" x1="145.078" y1="142.725" x2="146.021" y2="114.106" gradientUnits="userSpaceOnUse">
<stop stop-color="#792D3D"/>
<stop offset="1" stop-color="#792D3D"/>
</linearGradient>
<linearGradient id="paint11_linear" x1="4882.02" y1="4649.26" x2="4936.05" y2="3933.39" gradientUnits="userSpaceOnUse">
<stop stop-color="#AB316D"/>
<stop offset="1" stop-color="#792D3D"/>
</linearGradient>
<linearGradient id="paint12_linear" x1="1252.01" y1="1341.59" x2="1269.86" y2="1150.41" gradientUnits="userSpaceOnUse">
<stop stop-color="#AB316D"/>
<stop offset="1" stop-color="#792D3D"/>
</linearGradient>
<linearGradient id="paint13_linear" x1="1114.05" y1="1346.77" x2="1132.53" y2="1149.68" gradientUnits="userSpaceOnUse">
<stop stop-color="#AB316D"/>
<stop offset="1" stop-color="#792D3D"/>
</linearGradient>
<linearGradient id="paint14_linear" x1="143.685" y1="84.826" x2="143.685" y2="106.34" gradientUnits="userSpaceOnUse">
<stop stop-color="#1F2B4E"/>
<stop offset="1" stop-color="#40A9C8"/>
</linearGradient>
<linearGradient id="paint15_linear" x1="255.766" y1="357.34" x2="272.746" y2="445.574" gradientUnits="userSpaceOnUse">
<stop stop-color="#311944"/>
<stop offset="1" stop-color="#893976"/>
</linearGradient>
<linearGradient id="paint16_linear" x1="-13496.6" y1="5089.68" x2="-13460.4" y2="4706.67" gradientUnits="userSpaceOnUse">
<stop stop-color="#FFC444"/>
<stop offset="1" stop-color="#F36F56"/>
</linearGradient>
<linearGradient id="paint17_linear" x1="-49915.6" y1="6349.42" x2="-49737.3" y2="7823.19" gradientUnits="userSpaceOnUse">
<stop stop-color="#311944"/>
<stop offset="1" stop-color="#893976"/>
</linearGradient>
<linearGradient id="paint18_linear" x1="-13137.7" y1="5135.76" x2="-13101.5" y2="4752.39" gradientUnits="userSpaceOnUse">
<stop stop-color="#FFC444"/>
<stop offset="1" stop-color="#F36F56"/>
</linearGradient>
<linearGradient id="paint19_linear" x1="-81428.4" y1="105835" x2="-79603.4" y2="105835" gradientUnits="userSpaceOnUse">
<stop stop-color="#311944"/>
<stop offset="1" stop-color="#893976"/>
</linearGradient>
<linearGradient id="paint20_linear" x1="207.9" y1="189.875" x2="279.737" y2="189.875" gradientUnits="userSpaceOnUse">
<stop stop-color="#40A9C8"/>
<stop offset="1" stop-color="#A4CF59"/>
</linearGradient>
<linearGradient id="paint21_linear" x1="255.938" y1="217.058" x2="343.645" y2="217.058" gradientUnits="userSpaceOnUse">
<stop stop-color="#40A9C8"/>
<stop offset="1" stop-color="#A4CF59"/>
</linearGradient>
<linearGradient id="paint22_linear" x1="-200239" y1="55702.2" x2="-220628" y2="29274.1" gradientUnits="userSpaceOnUse">
<stop stop-color="#FFC444"/>
<stop offset="1" stop-color="#F36F56"/>
</linearGradient>
<linearGradient id="paint23_linear" x1="317.626" y1="209.474" x2="365.767" y2="209.474" gradientUnits="userSpaceOnUse">
<stop stop-color="#40A9C8"/>
<stop offset="1" stop-color="#A4CF59"/>
</linearGradient>
<linearGradient id="paint24_linear" x1="13491.5" y1="11048.8" x2="12769.3" y2="10156.4" gradientUnits="userSpaceOnUse">
<stop stop-color="#444B8C"/>
<stop offset="1" stop-color="#26264F"/>
</linearGradient>
</defs>
</svg>
